<?xml version="1.0" encoding="UTF-8"?>
<svg id="Layer_1" xmlns="http://www.w3.org/2000/svg" version="1.1" viewBox="0 0 800 800">
  <!-- Generator: Adobe Illustrator 30.2.1, SVG Export Plug-In . SVG Version: 2.1.1 Build 1)  -->
  <defs>
    <style>
      .st0 {
        fill: #fff;
      }
    </style>
  </defs>
  <g id="SVGRepo_iconCarrier">
    <path class="st0" d="M681.5,400c0,38-7.4,74.9-22.1,109.5-14.2,33.5-34.5,63.6-60.4,89.5-25.9,25.9-56,46.2-89.5,60.4-34.6,14.6-71.5,22.1-109.5,22.1s-19-.5-28.4-1.4c-37.5-1-66.6,30.8-64,64.2,2.3,30.3,30.3,55.8,64,54.7,9.6.9,19.1,1,28.4,1,220.9,0,400-179.1,400-400,.8-42.1-35.4-72.1-68.1-67.6-27.9,3.9-52.1,32.6-50.4,67.6Z"/>
  </g>
</svg>